<svg width="18" height="18" fill="none" xmlns="http://www.w3.org/2000/svg"><path d="M6.608 1.5 3.893 4.223m7.5-2.723 2.714 2.723" stroke="#9CA5B3" stroke-width="1.5" stroke-miterlimit="10" stroke-linecap="round" stroke-linejoin="round"/><path d="M1.5 5.888c0-1.388.743-1.5 1.665-1.5h11.67c.922 0 1.665.112 1.665 1.5 0 1.612-.742 1.5-1.665 1.5H3.165c-.922 0-1.665.112-1.665-1.5Z" stroke="#9CA5B3" stroke-width="1.5"/><path d="M7.32 10.5v2.662m3.45-2.662v2.662M2.625 7.5l1.058 6.48c.24 1.455.817 2.52 2.962 2.52h4.523c2.332 0 2.677-1.02 2.947-2.43l1.26-6.57" stroke="#9CA5B3" stroke-width="1.5" stroke-linecap="round"/></svg>