<svg width="16" height="17" fill="none" xmlns="http://www.w3.org/2000/svg"><path d="M5.333 15.167h5.334c2.68 0 3.16-1.074 3.3-2.38l.5-5.334c.18-1.626-.287-2.953-3.134-2.953H4.667c-2.847 0-3.314 1.327-3.134 2.953l.5 5.334c.14 1.306.62 2.38 3.3 2.38Z" stroke="#4790FF" stroke-width="1.5" stroke-miterlimit="10" stroke-linecap="round" stroke-linejoin="round"/><path d="M5.333 4.503v-.534c0-1.18 0-2.133 2.134-2.133h1.067c2.133 0 2.133.953 2.133 2.133v.534M9.333 9.167v.68c0 .726-.007 1.32-1.333 1.32-1.32 0-1.333-.587-1.333-1.314v-.686c0-.667 0-.667.666-.667h1.333c.667 0 .667 0 .667.667Zm5.101-1.331a10.99 10.99 0 0 1-5.1 2.013M1.747 8.016a10.855 10.855 0 0 0 4.92 1.84" stroke="#4790FF" stroke-width="1.5" stroke-miterlimit="10" stroke-linecap="round" stroke-linejoin="round"/></svg>