<svg width="16" height="17" fill="none" xmlns="http://www.w3.org/2000/svg"><path d="M14.54 3.13c-1.026 2.56-3.6 6.04-5.753 7.767L7.474 11.95a2.39 2.39 0 0 1-.52.3c0-.12-.007-.253-.027-.38a2.61 2.61 0 0 0-.773-1.526A2.722 2.722 0 0 0 4.58 9.55c-.133-.006-.266-.02-.4-.006.074-.207.187-.4.327-.56l1.04-1.314c1.72-2.153 5.213-4.74 7.766-5.76a.933.933 0 0 1 1.014.207.905.905 0 0 1 .213 1.013Z" stroke="#9CA5B3" stroke-width="1.5" stroke-linecap="round" stroke-linejoin="round"/><path d="M6.953 12.248a2.78 2.78 0 0 1-.806 1.967 2.77 2.77 0 0 1-1.62.774l-1.64.18a1.41 1.41 0 0 1-1.554-1.567l.18-1.64c.16-1.46 1.38-2.394 2.674-2.42.133-.007.273 0 .4.006.566.074 1.12.334 1.573.794.447.447.7.966.773 1.526.007.127.02.254.02.38Zm2.54-2.102A3.155 3.155 0 0 0 6.34 6.992" stroke="#9CA5B3" stroke-width="1.5" stroke-linecap="round" stroke-linejoin="round"/></svg>