<svg width="16" height="17" fill="none" xmlns="http://www.w3.org/2000/svg"><path d="M14.54 3.127c-1.027 2.56-3.6 6.04-5.753 7.766l-1.314 1.054c-.166.12-.333.226-.52.3a2.61 2.61 0 0 0-.8-1.907 2.722 2.722 0 0 0-1.573-.793c-.133-.007-.267-.02-.4-.007.073-.207.187-.4.327-.56l1.04-1.313c1.72-2.154 5.213-4.74 7.766-5.76a.933.933 0 0 1 1.014.206.905.905 0 0 1 .213 1.014Z" stroke="#4790FF" stroke-linecap="round" stroke-linejoin="round"/><path d="M6.953 12.247a2.78 2.78 0 0 1-.806 1.966 2.77 2.77 0 0 1-1.62.774l-1.64.18A1.41 1.41 0 0 1 1.333 13.6l.18-1.64c.16-1.46 1.38-2.393 2.674-2.42.133-.007.273 0 .4.007.566.073 1.12.333 1.573.793.447.447.7.967.773 1.527.007.126.02.253.02.38Zm2.54-2.1A3.155 3.155 0 0 0 6.34 6.993" stroke="#4790FF" stroke-linecap="round" stroke-linejoin="round"/></svg>