<svg width="18" height="18" fill="none" xmlns="http://www.w3.org/2000/svg"><path d="M17 14.064c0 .288-.064.584-.2.872-.137.288-.313.56-.545.816a3.612 3.612 0 0 1-1.314.944c-.48.2-1.002.304-1.562.304-.818 0-1.691-.192-2.612-.584a14.079 14.079 0 0 1-2.756-1.584 23.025 23.025 0 0 1-2.628-2.24 22.741 22.741 0 0 1-2.236-2.616c-.657-.912-1.186-1.824-1.57-2.728C1.192 6.336 1 5.464 1 4.632c0-.544.096-1.064.288-1.544.193-.488.497-.936.922-1.336C2.723 1.248 3.283 1 3.876 1c.225 0 .449.048.65.144.208.096.392.24.536.448l1.859 2.616c.144.2.248.384.32.56.072.168.113.336.113.488 0 .192-.057.384-.169.568a2.722 2.722 0 0 1-.448.568l-.61.632a.428.428 0 0 0-.127.32c0 .064.008.12.024.184.024.064.048.112.064.16.144.264.392.608.745 1.024.36.416.745.84 1.161 1.264.433.424.85.816 1.274 1.176.417.352.761.592 1.034.736.04.016.088.04.144.064a.554.554 0 0 0 .2.032c.137 0 .24-.048.329-.136l.609-.6c.2-.2.393-.352.577-.448.184-.112.368-.168.569-.168.152 0 .312.032.488.104a3.1 3.1 0 0 1 .561.312l2.652 1.88a1.2 1.2 0 0 1 .44.512c.08.2.129.4.129.624Z" stroke="#575E6A" stroke-width="1.5" stroke-miterlimit="10"/></svg>