<svg width="18" height="19" fill="none" xmlns="http://www.w3.org/2000/svg"><path d="M5.07 17h7.86c2.07 0 2.895-1.268 2.993-2.813l.39-6.194A2.815 2.815 0 0 0 13.5 5c-.457 0-.877-.263-1.087-.668l-.54-1.087C11.528 2.562 10.628 2 9.863 2H8.145c-.772 0-1.672.563-2.017 1.245l-.54 1.087C5.378 4.737 4.958 5 4.5 5a2.815 2.815 0 0 0-2.812 2.992l.39 6.196C2.168 15.732 3 17 5.07 17ZM7.875 6.5h2.25" stroke="#575E6A" stroke-width="1.5" stroke-linecap="round" stroke-linejoin="round"/><path d="M9 14a2.442 2.442 0 0 0 2.438-2.438A2.442 2.442 0 0 0 9 9.126a2.442 2.442 0 0 0-2.438 2.438A2.442 2.442 0 0 0 9 14Z" stroke="#575E6A" stroke-width="1.5" stroke-linecap="round" stroke-linejoin="round"/></svg>