<svg width="12" height="12" fill="none" xmlns="http://www.w3.org/2000/svg"><path d="M9.02 6.775c-.21.205-.33.5-.3.815.045.54.54.935 1.08.935h.95v.595c0 1.035-.845 1.88-1.88 1.88H3.13a1.884 1.884 0 0 1-1.88-1.88V5.755c0-1.035.845-1.88 1.88-1.88h5.74c1.035 0 1.88.845 1.88 1.88v.72H9.74c-.28 0-.535.11-.72.3Z" stroke="#4790FF" stroke-linecap="round" stroke-linejoin="round"/><path d="M1.25 6.205V3.92c0-.595.365-1.125.92-1.335l3.97-1.5a.95.95 0 0 1 1.285.89v1.9m3.855 3.11v1.03c0 .275-.22.5-.5.51H9.8c-.54 0-1.036-.395-1.08-.935-.03-.315.09-.61.3-.815.184-.19.44-.3.72-.3h1.04c.28.01.5.235.5.51ZM3.5 6H7" stroke="#4790FF" stroke-linecap="round" stroke-linejoin="round"/></svg>