<svg width="16" height="16" fill="none" xmlns="http://www.w3.org/2000/svg"><path d="m12.313 11.22.26 2.107a.664.664 0 0 1-1 .653L8.78 12.32c-.307 0-.607-.02-.9-.06a3.24 3.24 0 0 0 .787-2.107c0-1.893-1.64-3.426-3.667-3.426-.773 0-1.487.22-2.08.606a4.226 4.226 0 0 1-.027-.506c0-3.034 2.634-5.494 5.887-5.494 3.253 0 5.887 2.46 5.887 5.494 0 1.8-.927 3.393-2.354 4.393Z" stroke="#9CA5B3" stroke-width="1.5" stroke-linecap="round" stroke-linejoin="round"/><path d="M8.667 10.153a3.24 3.24 0 0 1-.787 2.107c-.66.8-1.707 1.313-2.88 1.313l-1.74 1.034c-.293.18-.667-.067-.627-.407l.167-1.313c-.893-.62-1.467-1.614-1.467-2.734 0-1.173.627-2.206 1.587-2.82A3.789 3.789 0 0 1 5 6.727c2.027 0 3.667 1.533 3.667 3.426Z" stroke="#9CA5B3" stroke-width="1.5" stroke-linecap="round" stroke-linejoin="round"/></svg>