<svg width="20" height="20" fill="none" xmlns="http://www.w3.org/2000/svg"><rect width="20" height="20" rx="4" fill="#FFD600"/><path d="m11.153 4.34 1.174 2.347c.16.326.586.64.946.7l2.127.353c1.36.227 1.68 1.213.7 2.187l-1.653 1.653c-.28.28-.434.82-.347 1.207l.473 2.046c.374 1.62-.486 2.247-1.92 1.4l-1.993-1.18c-.36-.213-.953-.213-1.32 0l-1.993 1.18c-1.427.847-2.294.214-1.92-1.4l.473-2.046c.087-.387-.067-.927-.347-1.207L3.9 9.927c-.973-.974-.66-1.96.7-2.187l2.127-.353c.353-.06.78-.374.94-.7L8.84 4.34c.64-1.273 1.68-1.273 2.313 0Z" fill="#fff"/></svg>