<svg width="18" height="19" fill="none" xmlns="http://www.w3.org/2000/svg"><path d="M14.895 6.567c0 .316-.022.623-.06.916a2.786 2.786 0 0 0-3.345.885A2.798 2.798 0 0 0 9.255 7.25a2.791 2.791 0 0 0-2.783 2.805c0 2.01 1.065 3.547 2.25 4.59-.037.023-.074.03-.112.045-.225.083-.6.083-.825 0C5.843 14.023 1.5 11.262 1.5 6.568c0-2.07 1.665-3.743 3.72-3.743 1.222 0 2.302.585 2.977 1.492a3.718 3.718 0 0 1 2.978-1.492c2.055 0 3.72 1.672 3.72 3.742Z" stroke="#9CA5B3" stroke-width="1.5" stroke-linecap="round" stroke-linejoin="round"/><path d="M16.5 10.055c0 3.51-3.248 5.58-4.703 6.075-.172.06-.45.06-.622 0-.623-.21-1.575-.712-2.452-1.485-1.185-1.043-2.25-2.58-2.25-4.59A2.791 2.791 0 0 1 9.255 7.25c.915 0 1.725.442 2.235 1.117a2.786 2.786 0 0 1 3.345-.885 2.801 2.801 0 0 1 1.665 2.573Z" stroke="#9CA5B3" stroke-width="1.5" stroke-linecap="round" stroke-linejoin="round"/></svg>