<svg width="18" height="18" fill="none" xmlns="http://www.w3.org/2000/svg"><path d="M6.375 14.25H6c-3 0-4.5-.75-4.5-4.5V6C1.5 3 3 1.5 6 1.5h6c3 0 4.5 1.5 4.5 4.5v3.75c0 3-1.5 4.5-4.5 4.5h-.375a.76.76 0 0 0-.6.3L9.9 16.05c-.495.66-1.305.66-1.8 0l-1.125-1.5a.848.848 0 0 0-.6-.3Z" stroke="#202020" stroke-width="1.5" stroke-miterlimit="10" stroke-linecap="round" stroke-linejoin="round"/><path d="M11.997 8.25h.007m-3.007 0h.006m-3.007 0h.007" stroke="#202020" stroke-width="2" stroke-linecap="round" stroke-linejoin="round"/></svg>