<svg width="69" height="13" fill="none" xmlns="http://www.w3.org/2000/svg"><path d="M2.28 12H.296V.304H2.28l3.776 9.312L9.832.304h2.016V12H9.864V6.928c0-.405.005-.747.016-1.024a64.8 64.8 0 0 1 .032-.736c.01-.213.032-.427.064-.64L7 12H5.112l-2.96-7.456c.053.352.085.8.096 1.344.021.544.032 1.184.032 1.92V12Zm22.813-5.856c0 1.184-.24 2.235-.72 3.152a5.342 5.342 0 0 1-2 2.128c-.854.512-1.84.768-2.96.768-1.11 0-2.091-.256-2.944-.768a5.343 5.343 0 0 1-2-2.128c-.47-.907-.704-1.952-.704-3.136 0-1.195.24-2.245.72-3.152.48-.917 1.141-1.632 1.984-2.144.853-.512 1.84-.768 2.96-.768 1.12 0 2.101.256 2.944.768a5.343 5.343 0 0 1 2 2.128c.48.907.72 1.957.72 3.152Zm-2.144 0c0-.832-.144-1.552-.432-2.16-.288-.608-.694-1.077-1.216-1.408-.523-.341-1.147-.512-1.872-.512-.715 0-1.339.17-1.872.512-.523.33-.928.8-1.216 1.408-.288.608-.432 1.328-.432 2.16 0 .832.144 1.557.432 2.176.288.608.693 1.077 1.216 1.408.533.33 1.157.496 1.872.496.725 0 1.349-.165 1.872-.496a3.388 3.388 0 0 0 1.216-1.424c.288-.619.432-1.339.432-2.16ZM29.03 12h-2.016V.304h2.032l6.08 9.2h-.592v-9.2h2.016V12h-2.016l-6.096-9.184h.592V12Zm14.317 0H39.14V.304h4.096c1.152 0 2.165.25 3.04.752a5.222 5.222 0 0 1 2.048 2.064c.501.875.752 1.893.752 3.056 0 1.141-.246 2.155-.736 3.04a5.171 5.171 0 0 1-2.016 2.048c-.854.49-1.846.736-2.976.736Zm-2.16-10.752v9.824l-.976-.96h2.944c.778 0 1.45-.16 2.016-.48.565-.32.997-.773 1.296-1.36.298-.587.448-1.285.448-2.096 0-.832-.155-1.541-.464-2.128a3.243 3.243 0 0 0-1.328-1.376c-.576-.32-1.27-.48-2.08-.48h-2.832l.976-.944ZM51.413 12h-2.112L53.525.304h2.096L59.845 12h-2.16l-.944-2.704h-4.368L51.413 12Zm2.896-8.208-1.344 3.776h3.184l-1.344-3.776c-.043-.16-.09-.32-.144-.48a1.894 1.894 0 0 1-.096-.416 4.276 4.276 0 0 1-.112.416c-.043.16-.09.32-.144.48Zm8.616 3.6L58.971.304h2.288l2.305 4.256c.085.16.16.31.224.448l.191.416c.054-.096.096-.187.129-.272a2.69 2.69 0 0 1 .112-.256c.053-.096.111-.208.175-.336L66.684.304h2.225l-3.937 7.088V12h-2.047V7.392Z" fill="#202020"/></svg>