<svg width="35" height="34" fill="none" xmlns="http://www.w3.org/2000/svg"><rect x=".5" width="34" height="34" rx="17" fill="#FAFAFC"/><path d="M22.167 17.585c0 2.917-2.041 4.375-4.468 5.22a.583.583 0 0 1-.39-.005c-2.433-.84-4.475-2.298-4.475-5.215v-4.083a.583.583 0 0 1 .583-.584c1.167 0 2.625-.7 3.64-1.586a.683.683 0 0 1 .887 0c1.02.892 2.473 1.586 3.64 1.586a.583.583 0 0 1 .583.584v4.083Z" stroke="#202020" stroke-linecap="round" stroke-linejoin="round"/><path d="m15.75 16.999 1.167 1.166 2.333-2.333" stroke="#202020" stroke-linecap="round" stroke-linejoin="round"/></svg>