<svg width="18" height="18" fill="none" xmlns="http://www.w3.org/2000/svg"><path d="M9.015 2.183a4.504 4.504 0 0 0-4.5 4.5V8.85c0 .457-.195 1.155-.427 1.545l-.863 1.433c-.533.885-.165 1.867.81 2.197a15.69 15.69 0 0 0 9.953 0 1.502 1.502 0 0 0 .81-2.197l-.863-1.433c-.225-.39-.42-1.088-.42-1.545V6.683c0-2.476-2.025-4.5-4.5-4.5Z" stroke="#202020" stroke-width="1.5" stroke-miterlimit="10" stroke-linecap="round"/><path d="M10.402 2.4a5.065 5.065 0 0 0-2.775 0 1.489 1.489 0 0 1 1.388-.945c.63 0 1.17.39 1.387.945Z" stroke="#202020" stroke-width="1.5" stroke-miterlimit="10" stroke-linecap="round" stroke-linejoin="round"/><path d="M11.265 14.295a2.257 2.257 0 0 1-2.25 2.25 2.258 2.258 0 0 1-1.59-.66 2.258 2.258 0 0 1-.66-1.59" stroke="#202020" stroke-width="1.5" stroke-miterlimit="10"/></svg>