<svg width="18" height="18" fill="none" xmlns="http://www.w3.org/2000/svg"><path d="M15.811 6.435v5.13c0 .84-.45 1.62-1.177 2.048l-4.455 2.572c-.728.42-1.628.42-2.363 0l-4.455-2.572a2.362 2.362 0 0 1-1.177-2.048v-5.13c0-.84.45-1.62 1.177-2.048l4.455-2.572a2.372 2.372 0 0 1 2.363 0l4.455 2.572a2.371 2.371 0 0 1 1.177 2.048Z" stroke="#575E6A" stroke-width="1.5" stroke-linecap="round" stroke-linejoin="round"/><path d="M9.001 8.245a1.748 1.748 0 1 0 0-3.495 1.748 1.748 0 0 0 0 3.495ZM12 12.492c0-1.35-1.342-2.445-3-2.445-1.657 0-3 1.095-3 2.445" stroke="#575E6A" stroke-width="1.5" stroke-linecap="round" stroke-linejoin="round"/></svg>